# AST/ASF file generated using VICON BodyLanguage
# -----------------------------------------------
:version 1.10
:name VICON
:units
  mass 1.0
  length 0.45
  angle deg
:documentation
   .ast/.asf automatically generated from VICON data using
   VICON BodyBuilder and BodyLanguage model FoxedUp or BRILLIANT.MOD
:root
   order TX TY TZ RX RY RZ
   axis XYZ
   position 0 0 0  
   orientation 0 0 0 
:bonedata
  begin
     id 1 
     name lhipjoint
     direction 0.625129 -0.738222 0.253461 
     length 2.5165 
     axis 0 0 0  XYZ
  end
  begin
     id 2 
     name lfemur
     direction 0.34202 -0.939693 0  
     length 7.54288  
     axis 0 0 20  XYZ
    dof rx ry rz
    limits (-160.0 20.0)
           (-70.0 70.0)
           (-60.0 70.0)
  end
  begin
     id 3 
     name ltibia
     direction 0.34202 -0.939693 0   
     length 7.71864   
     axis 0 0 20   XYZ
    dof rx
    limits (-10.0 170.0)
  end
  begin
     id 4 
     name lfoot
     direction 0.0772037 -0.212115 0.97419   
     length 2.18429   
     axis -90 7.62852e-016 20   XYZ
    dof rx rz
    limits (-45.0 90.0)
           (-70.0 20.0)
  end
  begin
     id 5 
     name ltoes
     direction 1.53513e-011 -4.21834e-011 1   
     length 1.09718   
     axis -90 7.62852e-016 20   XYZ
    dof rx
    limits (-90.0 20.0)
  end
  begin
     id 6 
     name rhipjoint
     direction -0.621946 -0.740623 0.254285   
     length 2.50835  
     axis 0 0 0  XYZ 
  end
  begin
     id 7 
     name rfemur
     direction -0.34202 -0.939693 0   
     length 7.43366   
     axis 0 0 -20   XYZ
    dof rx ry rz
    limits (-160.0 20.0)
           (-70.0 70.0)
           (-70.0 60.0)
  end
  begin
     id 8 
     name rtibia
     direction -0.34202 -0.939693 0   
     length 7.77122   
     axis 0 0 -20   XYZ
    dof rx
    limits (-10.0 170.0)
 end
 begin
     id 9 
     name rfoot
     direction -0.082694 -0.2272 0.970331   
     length 2.2293  
     axis -90 -7.62852e-016 -20   XYZ
    dof rx rz
    limits (-45.0 90.0)
           (-20.0 70.0)
  end
  begin
     id 10 
     name rtoes
     direction -1.53565e-011 -4.21695e-011 1   
     length 1.1178   
     axis -90 -7.62852e-016 -20   XYZ
    dof rx
    limits (-90.0 20.0)
  end
  begin
     id 11 
     name lowerback
     direction -0.000695208 0.988391 -0.151929   
     length 1.95077   
     axis 0 0 0   XYZ
    dof rx ry rz
    limits (-20.0 45.0)
           (-30.0 30.0)
           (-30.0 30.0)
  end
  begin
     id 12 
     name upperback
     direction -0.00268925 0.999885 -0.0149203   
     length 1.96246   
     axis 0 0 0   XYZ
    dof rx ry rz
    limits (-20.0 45.0)
           (-30.0 30.0)
           (-30.0 30.0)
  end
  begin
     id 13 
     name thorax
     direction -0.000848408 0.998481 0.0550912   
     length 2.00867   
     axis 0 0 0   XYZ
    dof rx ry rz
    limits (-20.0 45.0)
           (-30.0 30.0)
           (-30.0 30.0)
  end
  begin
     id 14 
     name lowerneck
     direction -0.00577709 0.998999 0.0443608   
     length 1.75762   
     axis 0 0 0   XYZ
    dof rx ry rz
    limits (-20.0 45.0)
           (-30.0 30.0)
           (-30.0 30.0)
  end
  begin
     id 15 
     name upperneck
     direction 0.0320945 0.999136 0.0264105   
     length 1.72601   
     axis 0 0 0   XYZ
    dof rx ry rz
    limits (-20.0 45.0)
           (-30.0 30.0)
           (-30.0 30.0)
  end
  begin
     id 16
     name head
     direction 0.0120552 0.999916 0.00480151  
     length 1.79973  
     axis 0 0 0   XYZ
    dof rx ry rz
    limits (-20.0 45.0)
           (-30.0 30.0)
           (-30.0 30.0)
  end
  begin
     id 17 
     name lclavicle
     direction 0.909 0.371533 -0.188897  
     length 3.47956  
     axis 0 0 0   XYZ
    dof ry rz
    limits (-20.0 10.0)
           (0.0 20.0)
  end
  begin
     id 18 
     name lhumerus
     direction 1 -4.48963e-011 -6.48352e-028   
     length 5.52302   
     axis 180 -30 -90   XYZ
    dof rx ry rz
    limits (-60.0 90.0)
           (-90.0 90.0)
           (-90.0 90.0)
  end
  begin
     id 19
     name lradius
     direction 1 -4.48968e-011 -4.78536e-027   
     length 3.58675   
     axis 180 -30 -90   XYZ
    dof rx
    limits (-10.0 170.0)
  end
  begin
     id 20
     name lwrist
     direction 1 -4.48942e-011 -9.9435e-027   
     length 1.79337   
     axis 8.54312e-015 90 90   XYZ
    dof ry
    limits (-180.0 0.0)
 end
  begin
     id 21 
     name lhand
     direction 1 -4.4904e-011 -1.9887e-026   
     length 0.536412   
     axis 1.26896e-014 90 90   XYZ
    dof rx rz
    limits (-90.0 90.0)
           (-45.0 45.0)
  end
  begin
     id 22 
     name lfingers
     direction 1 -4.48893e-011 -3.9774e-026   
     length 0.432469   
     axis 2.53792e-014 90 90   XYZ
    dof rx
    limits (0.0 90.0)
  end
  begin
     id 23
     name lthumb
     direction 0.707107 -6.34934e-011 0.707107   
     length 0.620942   
     axis -90 45 2.85299e-015   XYZ
    dof rx rz
    limits (-45.0 45.0)
           (-45.0 45.0)
  end
  begin
     id 24 
     name rclavicle
     direction -0.89595 0.416672 -0.153813   
     length 3.44099  
     axis 0 0 0   XYZ 
    dof ry rz
    limits (-10.0 20.0)
           (-20.0 0.0)
  end
  begin
     id 25 
     name rhumerus
     direction -1 -4.48952e-011 5.57804e-028  
     length 5.8478   
     axis 180 30 90   XYZ
    dof rx ry rz
    limits (-90.0 60.0)
           (-90.0 90.0)
           (-90.0 90.0)
  end
  begin
     id 26 
     name rradius
     direction -1 -4.48967e-011 -7.93646e-027   
     length 3.62717   
     axis 180 30 90   XYZ
    dof rx
    limits (-10.0 170.0)
  end
  begin
     id 27 
     name rwrist
     direction -1 -4.49008e-011 -9.9435e-027   
     length 1.81359   
     axis 8.54312e-015 -90 -90   XYZ
    dof ry
    limits (-180.0 0.0)
  end
  begin
     id 28
     name rhand
     direction -1 -4.48812e-011 -1.9887e-026   
     length 0.650516   
     axis 1.26896e-014 -90 -90   XYZ
    dof rx rz
    limits (-90.0 90.0)
           (-45.0 45.0)
  end
  begin
     id 29
     name rfingers
     direction -1 -4.49228e-011 -3.9774e-026   
     length 0.524463   
     axis 2.53792e-014 -90 -90   XYZ
    dof rx
    limits (0.0 90.0)
  end
  begin
     id 30
     name rthumb
     direction -0.707107 -6.34912e-011 0.707107   
     length 0.753027   
     axis -90 -45 -2.85299e-015   XYZ
    dof rx rz
    limits (-45.0 45.0)
           (-45.0 45.0)
  end
:hierarchy
  begin
    root lhipjoint rhipjoint lowerback
    lhipjoint lfemur
    lfemur ltibia
    ltibia lfoot
    lfoot ltoes
    rhipjoint rfemur
    rfemur rtibia
    rtibia rfoot
    rfoot rtoes
    lowerback upperback
    upperback thorax
    thorax lowerneck lclavicle rclavicle
    lowerneck upperneck
    upperneck head
    lclavicle lhumerus
    lhumerus lradius
    lradius lwrist
    lwrist lhand lthumb
    lhand lfingers
    rclavicle rhumerus
    rhumerus rradius
    rradius rwrist
    rwrist rhand rthumb
    rhand rfingers
  end

#!OML:ASF F:\VICON\USERDATA\INSTALL\rory3\rory3.ASF
:FULLY-SPECIFIED
:DEGREES
1739
root -7.94933 17.7001 -7.16789 -179.662 197.224 -175.778
lowerback 8.60302 -5.40961 -6.87041
upperback 1.65592 -7.84501 -1.08746
thorax -2.30325 -3.8696 3.45119
lowerneck -0.899936 -8.25809 -1.62247
upperneck 7.98472 -11.7432 8.25089
head 3.434 -5.65482 2.5793
rclavicle 9.93923e-015 1.31198e-014
rhumerus -38.8729 -15.9232 -68.3793
rradius 16.0768
rwrist 16.7205
rhand -22.0259 9.85147
rfingers 7.12502
rthumb 4.38372 -20.0832
lclavicle 9.93923e-015 1.31198e-014
lhumerus -15.1147 3.63364 77.4335
lradius 24.2037
lwrist 4.95243
lhand -35.1667 23.6171
lfingers 7.12502
lthumb -8.30564 -306.566
rfemur -29.1443 11.8575 15.7801
rtibia 16.9027
rfoot 12.5418 2.92863
rtoes 18.7309
lfemur 10.1466 -0.55441 -30.7541
ltibia 14.2476
lfoot -13.0974 4.34369
ltoes -14.4369
1740
root -7.93289 17.6743 -7.36368 -179.638 197.294 -175.299
lowerback 8.69645 -5.00482 -7.05266
upperback 2.20629 -7.32801 -1.86027
thorax -1.91493 -3.63874 2.6952
lowerneck -2.46561 -8.69941 -0.235709
upperneck 8.50684 -12.4901 8.38059
head 3.86222 -5.92195 2.2719
rclavicle -9.15403e-014 -1.51076e-014
rhumerus -38.8943 -18.0877 -69.1403
rradius 16.2155
rwrist 16.5729
rhand -22.3849 10.4496
rfingers 7.12502
rthumb 4.03709 -19.4919
lclavicle -9.15403e-014 -1.51076e-014
lhumerus -13.3495 0.883888 77.0135
lradius 25.0663
lwrist 6.04519
lhand -36.5967 21.9026
lfingers 7.12502
lthumb -9.68555 -308.34
rfemur -29.855 11.9142 14.8993
rtibia 16.3171
rfoot 13.4401 2.23768
rtoes 18.5519
lfemur 9.42696 -0.718621 -31.2778
ltibia 14.0202
lfoot -13.7249 5.4331
ltoes -13.096
1741
root -7.91969 17.6459 -7.5616 -179.497 197.425 -175.067
lowerback 8.82556 -4.78091 -7.31452
upperback 2.54171 -7.05842 -2.26152
thorax -1.68096 -3.51999 2.39786
lowerneck -3.29769 -8.91711 0.454837
upperneck 8.76144 -12.8967 8.56709
head 4.09682 -6.06282 2.15336
rclavicle 4.67144e-015 -2.46493e-014
rhumerus -38.8396 -19.3683 -69.7867
rradius 16.4418
rwrist 16.5393
rhand -22.7662 10.2609
rfingers 7.12502
rthumb 3.66891 -19.6873
lclavicle 4.67144e-015 -2.46493e-014
lhumerus -12.2061 -0.940492 76.6509
lradius 26.1685
lwrist 7.17534
lhand -37.9241 20.4235
lfingers 7.12502
lthumb -10.9661 -309.883
rfemur -30.7045 12.0099 14.2254
rtibia 15.9112
rfoot 13.7623 1.01094
rtoes 19.8525
lfemur 8.65446 -0.848922 -31.4625
ltibia 13.8245
lfoot -14.2677 5.95291
ltoes -10.8941
1742
root -7.90323 17.6412 -7.75394 -179.407 197.621 -174.834
lowerback 8.99444 -5.05834 -7.99641
upperback 2.32427 -7.50842 -2.05671
thorax -1.84309 -3.73122 3.03707
lowerneck -2.08552 -8.65734 -0.924895
upperneck 8.59397 -12.4607 8.95597
head 3.9252 -5.91863 2.60155
rclavicle 2.92213e-014 2.70347e-014
rhumerus -38.8963 -18.283 -70.0027
rradius 16.7072
rwrist 16.445
rhand -22.7908 9.8307
rfingers 7.12502
rthumb 3.64508 -20.1179
lclavicle 2.92213e-014 2.70347e-014
lhumerus -12.6982 -0.025903 76.5653
lradius 27.3718
lwrist 7.17934
lhand -37.6626 20.7014
lfingers 7.12502
lthumb -10.7139 -309.592
rfemur -31.3618 12.1721 13.5593
rtibia 15.7047
rfoot 13.4755 0.0666414
rtoes 18.7439
lfemur 7.90189 -0.924198 -31.6259
ltibia 13.7038
lfoot -14.6767 6.40233
ltoes -9.71352
1743
root -7.88253 17.6493 -7.94189 -179.366 197.696 -174.615
lowerback 9.32882 -5.77369 -8.95014
upperback 1.85012 -8.58587 -1.40652
thorax -2.16615 -4.23563 4.35669
lowerneck -0.349291 -7.80563 -3.3654
upperneck 8.82431 -11.2534 9.35219
head 3.40799 -5.40707 2.96541
rclavicle 9.49197e-014 1.66979e-014
rhumerus -38.5587 -15.6266 -70.1763
rradius 16.8367
rwrist 16.3062
rhand -22.4564 10.0648
rfingers 7.12502
rthumb 3.96803 -19.878
lclavicle 9.49197e-014 1.66979e-014
lhumerus -13.8924 2.59797 76.5984
lradius 28.3168
lwrist 6.61861
lhand -35.8999 22.6925
lfingers 7.12502
lthumb -9.01317 -307.52
rfemur -31.8816 12.2545 12.9934
rtibia 15.8641
rfoot 12.5145 -0.519188
rtoes 14.8167
lfemur 7.24131 -1.09771 -31.7724
ltibia 13.5268
lfoot -14.8901 6.88396
ltoes -9.34987
1744
root -7.86114 17.653 -8.12768 -179.432 197.736 -174.398
lowerback 9.87609 -6.26639 -9.80411
upperback 1.60064 -9.38168 -0.925341
thorax -2.40313 -4.60533 5.44398
lowerneck -0.213042 -7.33894 -4.72343
upperneck 9.23908 -10.5912 9.08791
head 3.52047 -5.12409 3.12977
rclavicle 2.73329e-014 3.97569e-016
rhumerus -38.2255 -13.7776 -70.3261
rradius 17.0479
rwrist 16.194
rhand -22.0307 10.4007
rfingers 7.12502
rthumb 4.37909 -19.534
lclavicle 2.73329e-014 3.97569e-016
lhumerus -14.3293 4.28011 76.5456
lradius 28.989
lwrist 6.23243
lhand -35.1743 23.5931
lfingers 7.12502
lthumb -8.31303 -306.59
rfemur -32.4679 12.3338 12.5021
rtibia 16.6545
rfoot 10.9201 -1.06641
rtoes 9.95776
lfemur 6.91873 -1.27979 -31.9243
ltibia 12.8883
lfoot -14.7605 7.09247
ltoes -8.63162
1745
root -7.83564 17.6668 -8.31429 -179.478 197.836 -174.404
lowerback 10.1759 -5.91862 -9.56093
upperback 1.89744 -8.93066 -1.46429
thorax -2.45241 -4.38829 4.74879
lowerneck -0.812958 -7.87566 -3.40383
upperneck 9.68408 -11.3721 8.87459
head 3.72645 -5.44818 2.78683
rclavicle -3.43897e-014 1.51076e-014
rhumerus -38.9468 -15.3342 -70.695
rradius 17.7092
rwrist 16.1531
rhand -21.7566 10.5379
rfingers 7.12502
rthumb 4.64382 -19.3912
lclavicle -3.43897e-014 1.51076e-014
lhumerus -13.3764 2.34326 76.1121
lradius 29.765
lwrist 6.31845
lhand -35.2071 24.2751
lfingers 7.12502
lthumb -8.34465 -305.91
rfemur -32.9777 12.533 12.3291
rtibia 17.5566
rfoot 9.30321 -1.35045
rtoes 2.33452
lfemur 6.56947 -1.39384 -31.8513
ltibia 12.3657
lfoot -14.578 7.15119
ltoes -8.2659
1746
root -7.81433 17.7057 -8.49138 -179.624 197.923 -174.454
lowerback 10.1255 -5.3808 -8.86583
upperback 2.62372 -8.12769 -2.40215
thorax -2.01394 -4.03538 3.29864
lowerneck -1.93778 -8.56672 -1.45076
upperneck 10.1526 -12.455 8.94747
head 4.015 -5.86798 2.38881
rclavicle -1.11319e-014 1.66979e-014
rhumerus -39.514 -18.0593 -71.4121
rradius 18.3378
rwrist 16.3534
rhand -21.2972 10.6809
rfingers 7.12502
rthumb 5.08741 -19.238
lclavicle -1.11319e-014 1.66979e-014
lhumerus -11.7927 -0.340661 75.4302
lradius 30.5865
lwrist 7.01657
lhand -35.2909 24.0887
lfingers 7.12502
lthumb -8.42552 -306.099
rfemur -33.2565 12.8297 12.3866
rtibia 18.5087
rfoot 7.85845 -1.22965
rtoes -10.1626
lfemur 6.2612 -1.5008 -31.7058
ltibia 12.1849
lfoot -14.4624 7.4569
ltoes -8.3508
1747
root -7.79711 17.7236 -8.66119 -179.794 198.051 -174.551
lowerback 10.391 -5.65996 -9.11414
upperback 2.49845 -8.55086 -2.14617
thorax -2.16511 -4.23411 3.76584
lowerneck -1.01879 -8.32483 -2.71104
upperneck 10.4876 -12.1052 9.02573
head 4.02055 -5.75469 2.66086
rclavicle 4.75095e-014 2.38542e-015
rhumerus -39.7667 -16.8975 -71.3985
rradius 18.6439
rwrist 16.6884
rhand -20.7791 11.5365
rfingers 7.12502
rthumb 5.58762 -18.3698
lclavicle 4.75095e-014 2.38542e-015
lhumerus -12.3939 0.538649 75.5094
lradius 31.1773
lwrist 7.65045
lhand -35.3653 24.4589
lfingers 7.12502
lthumb -8.49732 -305.732
rfemur -33.413 13.0109 12.2016
rtibia 19.4402
rfoot 6.26589 -2.49196
rtoes -3.30192
lfemur 5.85987 -1.5557 -31.5465
ltibia 12.3599
lfoot -14.3963 7.99859
ltoes -8.87472
1748
root -7.77864 17.7489 -8.82917 -179.875 198.202 -174.728
lowerback 10.5266 -5.47356 -8.88054
upperback 2.82692 -8.27846 -2.30996
thorax -1.98629 -4.11751 3.44472
lowerneck -1.37217 -8.6992 -2.1961
upperneck 10.8995 -12.6393 8.72156
head 4.18787 -5.98843 2.43615
rclavicle 3.27995e-014 3.4191e-014
rhumerus -39.9386 -17.684 -71.4961
rradius 19.0463
rwrist 17.0745
rhand -20.3726 12.8655
rfingers 7.12502
rthumb 5.98006 -17.0301
lclavicle 3.27995e-014 3.4191e-014
lhumerus -11.3815 -0.437552 75.4327
lradius 31.1932
lwrist 8.70997
lhand -35.4417 25.526
lfingers 7.12502
lthumb -8.57105 -304.668
rfemur -33.4558 13.2544 12.1544
rtibia 20.3923
rfoot 4.52968 -2.82796
rtoes -5.49187
lfemur 5.23692 -1.60179 -31.3051
ltibia 12.7437
lfoot -14.3142 8.44377
ltoes -9.00525
1749
root -7.76328 17.7811 -8.99845 -179.935 198.166 -174.929
lowerback 10.8284 -5.58715 -8.89989
upperback 2.85112 -8.45722 -2.19024
thorax -2.08333 -4.2023 3.62643
lowerneck -1.06963 -8.67259 -2.48217
upperneck 11.3594 -12.6093 8.51732
head 4.27963 -5.98909 2.42622
rclavicle 2.14687e-014 0
rhumerus -40.1089 -17.4028 -71.4967
rradius 19.3496
rwrist 17.6676
rhand -20.001 14.1217
rfingers 7.12502
rthumb 6.33888 -15.7634
lclavicle 2.14687e-014 0
lhumerus -11.3327 0.00129132 75.4356
lradius 31.3905
lwrist 8.96648
lhand -36.3568 24.5001
lfingers 7.12502
lthumb -9.45408 -305.732
rfemur -33.4272 13.3481 12.1855
rtibia 21.3302
rfoot 2.71952 -2.76479
rtoes -8.2361
lfemur 4.44502 -1.83901 -30.9928
ltibia 13.3987
lfoot -14.1196 8.85428
ltoes -7.29445
1750
root -7.74886 17.8173 -9.16068 -179.972 198.074 -174.965
lowerback 11.0201 -5.76032 -9.00187
upperback 2.78015 -8.7222 -2.17634
thorax -2.2131 -4.32466 3.7456
lowerneck -0.917134 -8.57817 -2.37113
upperneck 12.0974 -12.489 7.96941
head 4.43083 -5.93486 2.24621
rclavicle -7.91163e-014 1.90833e-014
rhumerus -40.2806 -17.1145 -71.6911
rradius 19.3957
rwrist 18.4332
rhand -19.6372 16.0218
rfingers 7.12502
rthumb 6.69001 -13.8525
lclavicle -7.91163e-014 1.90833e-014
lhumerus -11.5739 0.635821 75.3733
lradius 31.4707
lwrist 8.73088
lhand -37.1769 22.7576
lfingers 7.12502
lthumb -10.2453 -307.512
rfemur -33.4692 13.3742 12.0484
rtibia 22.3728
rfoot 0.899282 -2.93212
rtoes -10.5646
lfemur 3.61713 -2.14081 -30.8699
ltibia 14.09
lfoot -13.6053 9.36646
ltoes -6.4737
